<mxfile host="app.diagrams.net" agent="Mozilla/5.0 (Windows NT 10.0; Win64; x64) AppleWebKit/537.36 (KHTML, like Gecko) Chrome/135.0.0.0 Safari/537.36" version="26.2.13">
  <diagram name="第 1 页" id="bXbiH3EwShpQN_3dVzvC">
    <mxGraphModel dx="566" dy="480" grid="1" gridSize="10" guides="1" tooltips="1" connect="1" arrows="1" fold="1" page="1" pageScale="1" pageWidth="827" pageHeight="1169" math="0" shadow="0">
      <root>
        <mxCell id="0" />
        <mxCell id="1" parent="0" />
        <mxCell id="wD3wdMFgseMs4cs2oebw-3" style="rounded=0;orthogonalLoop=1;jettySize=auto;html=1;exitX=1;exitY=0.3333333333333333;exitDx=0;exitDy=0;exitPerimeter=0;entryX=0;entryY=0.5;entryDx=0;entryDy=0;" edge="1" parent="1" source="rSCCLJno3e1j1hXcmhqp-1" target="rSCCLJno3e1j1hXcmhqp-7">
          <mxGeometry relative="1" as="geometry" />
        </mxCell>
        <mxCell id="wD3wdMFgseMs4cs2oebw-4" style="rounded=0;orthogonalLoop=1;jettySize=auto;html=1;exitX=1;exitY=0.3333333333333333;exitDx=0;exitDy=0;exitPerimeter=0;entryX=0;entryY=0.5;entryDx=0;entryDy=0;" edge="1" parent="1" source="rSCCLJno3e1j1hXcmhqp-1" target="wD3wdMFgseMs4cs2oebw-1">
          <mxGeometry relative="1" as="geometry" />
        </mxCell>
        <mxCell id="wD3wdMFgseMs4cs2oebw-5" style="edgeStyle=none;rounded=0;orthogonalLoop=1;jettySize=auto;html=1;exitX=1;exitY=0.3333333333333333;exitDx=0;exitDy=0;exitPerimeter=0;entryX=0;entryY=0.5;entryDx=0;entryDy=0;" edge="1" parent="1" source="rSCCLJno3e1j1hXcmhqp-1" target="rSCCLJno3e1j1hXcmhqp-6">
          <mxGeometry relative="1" as="geometry" />
        </mxCell>
        <mxCell id="wD3wdMFgseMs4cs2oebw-6" style="edgeStyle=none;rounded=0;orthogonalLoop=1;jettySize=auto;html=1;exitX=1;exitY=0.3333333333333333;exitDx=0;exitDy=0;exitPerimeter=0;entryX=0;entryY=0.5;entryDx=0;entryDy=0;" edge="1" parent="1" source="rSCCLJno3e1j1hXcmhqp-1" target="sMCnN8c91tiRlIX-VRlG-1">
          <mxGeometry relative="1" as="geometry" />
        </mxCell>
        <mxCell id="rSCCLJno3e1j1hXcmhqp-1" value="管理员&lt;div&gt;维修人员&lt;/div&gt;" style="shape=umlActor;verticalLabelPosition=bottom;verticalAlign=top;html=1;outlineConnect=0;" parent="1" vertex="1">
          <mxGeometry x="140" y="220.01" width="30" height="60" as="geometry" />
        </mxCell>
        <mxCell id="rSCCLJno3e1j1hXcmhqp-6" value="编辑个人信息" style="ellipse;whiteSpace=wrap;html=1;" parent="1" vertex="1">
          <mxGeometry x="220" y="247" width="90" height="36.67" as="geometry" />
        </mxCell>
        <mxCell id="rSCCLJno3e1j1hXcmhqp-7" value="登录" style="ellipse;whiteSpace=wrap;html=1;" parent="1" vertex="1">
          <mxGeometry x="230" y="142" width="70" height="36.67" as="geometry" />
        </mxCell>
        <mxCell id="sMCnN8c91tiRlIX-VRlG-1" value="退出登录" style="ellipse;whiteSpace=wrap;html=1;" parent="1" vertex="1">
          <mxGeometry x="220" y="296" width="90" height="36.67" as="geometry" />
        </mxCell>
        <mxCell id="wD3wdMFgseMs4cs2oebw-1" value="查看登陆轨迹" style="ellipse;whiteSpace=wrap;html=1;" vertex="1" parent="1">
          <mxGeometry x="220" y="192" width="90" height="36.67" as="geometry" />
        </mxCell>
      </root>
    </mxGraphModel>
  </diagram>
</mxfile>
